<svg width="11" height="12" viewBox="0 0 11 12" xmlns="http://www.w3.org/2000/svg"><title>Shape</title><path d="M9.8423 2.2857H7.77024v-.5714C7.77024.76713 7.0748 0 6.2162 0H4.14412c-.8586 0-1.55405.76714-1.55405 1.7143v.5714H.51802C.23194 2.2857 0 2.54158 0 2.85715c0 .31557.23194.57143.51802.57143h.518v6.85714c0 .94716.69545 1.7143 1.55406 1.7143h5.18016c.8586 0 1.55404-.76714 1.55404-1.7143V3.42858h.51802c.28607 0 .51802-.25586.51802-.57143s-.23195-.57143-.51802-.57143zm-6.2162-.5714c0-.31573.23182-.57144.51803-.57144H6.2162c.2862 0 .518.2557.518.57143v.5714H3.6261v-.5714zm4.66215 8.5714c0 .31573-.2318.57144-.518.57144H2.59007c-.2862 0-.51802-.2557-.51802-.57143V3.42858h6.2162v6.85714z" fill="#7F7F7F" fill-rule="evenodd"/></svg>