<?xml version="1.0" encoding="UTF-8" standalone="no"?>
<svg width="8px" height="12px" viewBox="0 0 8 12" version="1.1" xmlns="http://www.w3.org/2000/svg" xmlns:xlink="http://www.w3.org/1999/xlink">
    <!-- Generator: Sketch 42 (36781) - http://www.bohemiancoding.com/sketch -->
    <title>path25_fill</title>
    <desc>Created with Sketch.</desc>
    <defs></defs>
    <g id="Page-1" stroke="none" stroke-width="1" fill="none" fill-rule="evenodd">
        <g id="Custom-Fields" transform="translate(-568.000000, -222.000000)" fill="#828282">
            <g id="Editor" transform="translate(400.000000, 0.000000)">
                <g id="Fields" transform="translate(100.000000, 190.000000)">
                    <g id="SSN" transform="translate(0.000000, 26.000000)">
                        <path d="M74.847868,10.1196544 L75.9287677,8.10208484 L72.5507187,6 L71.575469,7.82014481 L71.2506091,8.42662671 L68,14.4942637 L68.7137738,17.3654724 L71.378049,16.5956279 L74.6286581,10.5287116 L74.847868,10.1196544 L74.847868,10.1196544 Z M69.2010697,16.4550236 L68.7249988,14.5418452 L68.7249988,14.5411246 L70.9772491,15.9429949 L69.2010697,16.4550236 L69.2010697,16.4550236 Z M71.3027691,15.3358031 L69.0505197,13.9346534 L71.8138389,8.77673399 L74.0654283,10.1785935 L71.3027691,15.3358031 L71.3027691,15.3358031 Z M72.1386988,8.17026284 L72.7890886,6.9573001 L75.041998,8.35844872 L74.3902882,9.57141253 L72.1386988,8.17026284 L72.1386988,8.17026284 Z" id="path25_fill"></path>
                    </g>
                </g>
            </g>
        </g>
    </g>
</svg>